<svg xmlns="http://www.w3.org/2000/svg" xmlns:xlink="http://www.w3.org/1999/xlink" width="500" zoomAndPan="magnify" viewBox="0 0 375 374.999991" height="500" preserveAspectRatio="xMidYMid meet" version="1.0"><defs><g/><clipPath id="28763be7dc"><path d="M 119.308594 140 L 188 140 L 188 200 L 119.308594 200 Z M 119.308594 140 " clip-rule="nonzero"/></clipPath><clipPath id="5edc531d95"><path d="M 187 108.519531 L 255.808594 108.519531 L 255.808594 169 L 187 169 Z M 187 108.519531 " clip-rule="nonzero"/></clipPath></defs><g clip-path="url(#28763be7dc)"><path fill="#0652e9" d="M 165.269531 182.492188 L 165.269531 190.777344 L 127.644531 173.351562 L 127.644531 166.628906 L 165.269531 149.203125 L 165.269531 157.488281 L 136.816406 169.910156 L 136.816406 170.066406 Z M 187.617188 140 L 124.691406 140 C 121.722656 140 119.3125 142.402344 119.3125 145.363281 L 119.3125 194.617188 C 119.3125 197.578125 121.722656 199.980469 124.691406 199.980469 L 170.148438 199.980469 L 187.617188 140 " fill-opacity="1" fill-rule="nonzero"/></g><g clip-path="url(#5edc531d95)"><path fill="#e40606" d="M 247.488281 142.132812 L 209.863281 159.324219 L 209.863281 151.039062 L 238.945312 138.613281 L 238.945312 138.457031 L 209.863281 126.035156 L 209.863281 117.75 L 247.488281 134.941406 Z M 205.085938 108.546875 L 187.617188 168.527344 L 250.4375 168.527344 C 253.410156 168.527344 255.816406 166.125 255.816406 163.164062 L 255.816406 113.910156 C 255.816406 110.949219 253.410156 108.546875 250.4375 108.546875 L 205.085938 108.546875 " fill-opacity="1" fill-rule="nonzero"/></g><g fill="#ffffff" fill-opacity="1"><g transform="translate(56.460503, 236.784858)"><g><path d="M 6.683594 -4.09375 L 6.683594 -21 L 2.066406 -21 L 2.066406 0 L 13.648438 0 L 13.648438 -4.09375 Z M 6.683594 -4.09375 "/></g></g></g><g fill="#ffffff" fill-opacity="1"><g transform="translate(71.410604, 236.784858)"><g><path d="M 10.675781 0.28125 C 15.644531 0.28125 19.421875 -2.765625 19.421875 -6.71875 L 19.421875 -21 L 14.804688 -21 L 14.804688 -7.59375 C 14.804688 -5.460938 13.019531 -3.816406 10.675781 -3.816406 C 8.363281 -3.816406 6.578125 -5.460938 6.578125 -7.59375 L 6.578125 -21 L 1.960938 -21 L 1.960938 -6.71875 C 1.960938 -2.765625 5.773438 0.28125 10.675781 0.28125 Z M 10.675781 0.28125 "/></g></g></g><g fill="#ffffff" fill-opacity="1"><g transform="translate(94.024642, 236.784858)"><g><path d="M 12.074219 0.28125 C 16.238281 0.28125 19.84375 -2.066406 21.628906 -5.496094 L 17.636719 -7.558594 C 16.625 -5.566406 14.558594 -4.234375 12.074219 -4.234375 C 8.539062 -4.234375 5.84375 -6.964844 5.84375 -10.5 C 5.84375 -14.035156 8.539062 -16.761719 12.074219 -16.761719 C 14.558594 -16.761719 16.625 -15.433594 17.636719 -13.4375 L 21.628906 -15.503906 C 19.84375 -18.933594 16.238281 -21.277344 12.074219 -21.277344 C 6.125 -21.277344 1.292969 -16.449219 1.292969 -10.5 C 1.292969 -4.550781 6.125 0.28125 12.074219 0.28125 Z M 12.074219 0.28125 "/></g></g></g><g fill="#ffffff" fill-opacity="1"><g transform="translate(117.793524, 236.784858)"><g><path d="M 14.910156 0 L 19.84375 0 L 12.285156 -21 L 7.105469 -21 L -0.453125 0 L 4.480469 0 L 5.773438 -3.953125 L 13.613281 -3.953125 Z M 7 -7.804688 L 9.695312 -16.132812 L 12.390625 -7.804688 Z M 7 -7.804688 "/></g></g></g><g fill="#ffffff" fill-opacity="1"><g transform="translate(138.412847, 236.784858)"><g><path d="M 8.539062 0.28125 C 12.457031 0.28125 15.785156 -2.03125 15.785156 -5.949219 C 15.785156 -13.71875 6.125 -11.792969 6.125 -15.433594 C 6.125 -16.625 7.035156 -17.183594 8.152344 -17.183594 C 9.34375 -17.183594 10.535156 -16.519531 11.582031 -15.363281 L 14.664062 -18.304688 C 13.125 -20.089844 10.777344 -21.277344 8.1875 -21.277344 C 4.863281 -21.277344 1.46875 -19.285156 1.46875 -15.082031 C 1.46875 -7.945312 11.164062 -9.660156 11.164062 -5.984375 C 11.164062 -4.828125 10.183594 -4.058594 8.574219 -4.058594 C 6.648438 -4.058594 5.144531 -5.144531 4.375 -6.789062 L 0.558594 -4.410156 C 1.925781 -1.785156 4.863281 0.28125 8.539062 0.28125 Z M 8.539062 0.28125 "/></g></g></g><g fill="#ffffff" fill-opacity="1"><g transform="translate(156.232549, 236.784858)"><g/></g></g><g fill="#ffffff" fill-opacity="1"><g transform="translate(165.863393, 236.784858)"><g><path d="M 14.699219 -21 L 9.695312 -5.984375 L 4.691406 -21 L -0.453125 -21 L 7.105469 0 L 12.285156 0 L 19.84375 -21 Z M 14.699219 -21 "/></g></g></g><g fill="#ffffff" fill-opacity="1"><g transform="translate(186.482715, 236.784858)"><g><path d="M 2.238281 0 L 6.859375 0 L 6.859375 -21 L 2.238281 -21 Z M 2.238281 0 "/></g></g></g><g fill="#ffffff" fill-opacity="1"><g transform="translate(196.778472, 236.784858)"><g><path d="M 8.539062 0.28125 C 12.457031 0.28125 15.785156 -2.03125 15.785156 -5.949219 C 15.785156 -13.71875 6.125 -11.792969 6.125 -15.433594 C 6.125 -16.625 7.035156 -17.183594 8.152344 -17.183594 C 9.34375 -17.183594 10.535156 -16.519531 11.582031 -15.363281 L 14.664062 -18.304688 C 13.125 -20.089844 10.777344 -21.277344 8.1875 -21.277344 C 4.863281 -21.277344 1.46875 -19.285156 1.46875 -15.082031 C 1.46875 -7.945312 11.164062 -9.660156 11.164062 -5.984375 C 11.164062 -4.828125 10.183594 -4.058594 8.574219 -4.058594 C 6.648438 -4.058594 5.144531 -5.144531 4.375 -6.789062 L 0.558594 -4.410156 C 1.925781 -1.785156 4.863281 0.28125 8.539062 0.28125 Z M 8.539062 0.28125 "/></g></g></g><g fill="#ffffff" fill-opacity="1"><g transform="translate(214.59818, 236.784858)"><g><path d="M 12.074219 0.28125 C 16.238281 0.28125 19.84375 -2.066406 21.628906 -5.496094 L 17.636719 -7.558594 C 16.625 -5.566406 14.558594 -4.234375 12.074219 -4.234375 C 8.539062 -4.234375 5.84375 -6.964844 5.84375 -10.5 C 5.84375 -14.035156 8.539062 -16.761719 12.074219 -16.761719 C 14.558594 -16.761719 16.625 -15.433594 17.636719 -13.4375 L 21.628906 -15.503906 C 19.84375 -18.933594 16.238281 -21.277344 12.074219 -21.277344 C 6.125 -21.277344 1.292969 -16.449219 1.292969 -10.5 C 1.292969 -4.550781 6.125 0.28125 12.074219 0.28125 Z M 12.074219 0.28125 "/></g></g></g><g fill="#ffffff" fill-opacity="1"><g transform="translate(238.367066, 236.784858)"><g><path d="M 14.910156 0 L 19.84375 0 L 12.285156 -21 L 7.105469 -21 L -0.453125 0 L 4.480469 0 L 5.773438 -3.953125 L 13.613281 -3.953125 Z M 7 -7.804688 L 9.695312 -16.132812 L 12.390625 -7.804688 Z M 7 -7.804688 "/></g></g></g><g fill="#ffffff" fill-opacity="1"><g transform="translate(258.986376, 236.784858)"><g><path d="M 2.238281 0 L 6.859375 0 L 6.859375 -21 L 2.238281 -21 Z M 2.238281 0 "/></g></g></g><g fill="#ffffff" fill-opacity="1"><g transform="translate(269.282121, 236.784858)"><g><path d="M 17.148438 -21 L 17.148438 -7.105469 L 6.824219 -21 L 2.066406 -21 L 2.066406 0 L 6.683594 0 L 6.683594 -13.929688 L 16.972656 0 L 21.734375 0 L 21.734375 -21 Z M 17.148438 -21 "/></g></g></g><g fill="#ffffff" fill-opacity="1"><g transform="translate(294.345825, 236.784858)"><g><path d="M 12.074219 0.28125 C 18.058594 0.28125 22.851562 -4.550781 22.851562 -10.5 C 22.851562 -16.449219 18.058594 -21.277344 12.074219 -21.277344 C 6.125 -21.277344 1.292969 -16.449219 1.292969 -10.5 C 1.292969 -4.550781 6.125 0.28125 12.074219 0.28125 Z M 12.074219 -4.234375 C 8.539062 -4.234375 5.84375 -6.964844 5.84375 -10.5 C 5.84375 -14.035156 8.539062 -16.761719 12.074219 -16.761719 C 15.644531 -16.761719 18.339844 -14.035156 18.339844 -10.5 C 18.339844 -6.964844 15.644531 -4.234375 12.074219 -4.234375 Z M 12.074219 -4.234375 "/></g></g></g></svg>